<svg xmlns="http://www.w3.org/2000/svg" xmlns:xlink="http://www.w3.org/1999/xlink">
    <defs>

    <svg id="chat" width="17" height="17" viewBox="0 0 17 17" fill="currentColor" xmlns="http://www.w3.org/2000/svg">
        <path d="M5.11675 7.64966C4.94887 7.64966 4.78476 7.69951 4.64518 7.79291C4.50559 7.8863 4.3968 8.01905 4.33255 8.17436C4.26831 8.32967 4.2515 8.50057 4.28425 8.66544C4.317 8.83032 4.39785 8.98177 4.51655 9.10064C4.63526 9.21951 4.7865 9.30046 4.95115 9.33325C5.11581 9.36605 5.28647 9.34922 5.44157 9.28489C5.59667 9.22056 5.72923 9.11161 5.8225 8.97184C5.91577 8.83206 5.96555 8.66773 5.96555 8.49962C5.96555 8.2742 5.87612 8.05801 5.71694 7.89861C5.55776 7.73921 5.34186 7.64966 5.11675 7.64966ZM8.51196 7.64966C8.34408 7.64966 8.17998 7.69951 8.04039 7.79291C7.90081 7.8863 7.79201 8.01905 7.72777 8.17436C7.66353 8.32967 7.64672 8.50057 7.67947 8.66544C7.71222 8.83032 7.79306 8.98177 7.91177 9.10064C8.03048 9.21951 8.18172 9.30046 8.34637 9.33325C8.51102 9.36605 8.68169 9.34922 8.83679 9.28489C8.99188 9.22056 9.12445 9.11161 9.21772 8.97184C9.31098 8.83206 9.36077 8.66773 9.36077 8.49962C9.36077 8.2742 9.27134 8.05801 9.11216 7.89861C8.95298 7.73921 8.73708 7.64966 8.51196 7.64966ZM11.9072 7.64966C11.7393 7.64966 11.5752 7.69951 11.4356 7.79291C11.296 7.8863 11.1872 8.01905 11.123 8.17436C11.0587 8.32967 11.0419 8.50057 11.0747 8.66544C11.1074 8.83032 11.1883 8.98177 11.307 9.10064C11.4257 9.21951 11.5769 9.30046 11.7416 9.33325C11.9062 9.36605 12.0769 9.34922 12.232 9.28489C12.3871 9.22056 12.5197 9.11161 12.6129 8.97184C12.7062 8.83206 12.756 8.66773 12.756 8.49962C12.756 8.2742 12.6666 8.05801 12.5074 7.89861C12.3482 7.73921 12.1323 7.64966 11.9072 7.64966ZM8.51196 0C7.3973 0 6.29355 0.219849 5.26373 0.646995C4.23391 1.07414 3.2982 1.70022 2.51001 2.48948C0.918197 4.08347 0.0239247 6.24538 0.0239247 8.49962C0.0165043 10.4623 0.695152 12.3657 1.94222 13.8799L0.244614 15.5798C0.126836 15.6993 0.0470513 15.8511 0.015328 16.016C-0.0163953 16.1809 0.00136394 16.3515 0.0663648 16.5063C0.136865 16.6592 0.251153 16.7877 0.394722 16.8755C0.538291 16.9633 0.704666 17.0063 0.872728 16.9992H8.51196C10.7631 16.9992 12.9221 16.1038 14.5139 14.5098C16.1057 12.9158 17 10.7539 17 8.49962C17 6.24538 16.1057 4.08347 14.5139 2.48948C12.9221 0.895494 10.7631 0 8.51196 0ZM8.51196 15.2993H2.91835L3.70773 14.5089C3.78794 14.4301 3.85174 14.3363 3.89545 14.2327C3.93916 14.1291 3.96191 14.0178 3.96237 13.9054C3.95918 13.6812 3.86766 13.4673 3.70773 13.3104C2.5963 12.1987 1.90417 10.7355 1.74928 9.17007C1.59439 7.60466 1.98631 6.03389 2.85827 4.72538C3.73024 3.41688 5.02829 2.4516 6.53129 1.99399C8.03429 1.53638 9.64924 1.61476 11.101 2.21578C12.5528 2.81679 13.7515 3.90326 14.493 5.29007C15.2345 6.67689 15.4729 8.27825 15.1675 9.82132C14.8622 11.3644 14.032 12.7537 12.8184 13.7526C11.6048 14.7515 10.0829 15.2981 8.51196 15.2993Z" fill="currentColor"/>
    </svg>

    <svg id="marketplace" width="16" height="17" viewBox="0 0 16 17" fill="none" xmlns="http://www.w3.org/2000/svg">
        <path d="M15.9944 4.94848C15.9982 4.89473 15.9982 4.84075 15.9944 4.787L14.3949 0.53752C14.3325 0.369543 14.2213 0.227084 14.0775 0.130807C13.9337 0.0345301 13.7648 -0.0105573 13.5952 0.00208513H2.39916C2.23899 0.00192035 2.08247 0.0528704 1.94986 0.148336C1.81726 0.243801 1.71468 0.379383 1.65542 0.53752L0.0559803 4.787C0.0521254 4.84075 0.0521254 4.89473 0.0559803 4.94848C0.0294063 4.99579 0.010484 5.0475 0 5.10146C0.00890134 5.68894 0.160924 6.26395 0.441241 6.77038C0.721557 7.27682 1.1206 7.6974 1.59944 7.99111V16.1501C1.59944 16.3755 1.68369 16.5917 1.83367 16.7511C1.98365 16.9105 2.18706 17 2.39916 17H13.5952C13.8073 17 14.0107 16.9105 14.1607 16.7511C14.3107 16.5917 14.3949 16.3755 14.3949 16.1501V8.0251C14.8784 7.72847 15.2804 7.30254 15.561 6.78964C15.8416 6.27674 15.991 5.69473 15.9944 5.10146C16.0019 5.05078 16.0019 4.99916 15.9944 4.94848ZM8.79691 15.3002H7.19747V11.9006H8.79691V15.3002ZM12.7955 15.3002H10.3963V11.0507C10.3963 10.8253 10.3121 10.6091 10.1621 10.4498C10.0121 10.2904 9.80873 10.2008 9.59663 10.2008H6.39775C6.18565 10.2008 5.98224 10.2904 5.83227 10.4498C5.68229 10.6091 5.59803 10.8253 5.59803 11.0507V15.3002H3.19888V8.50104C3.65429 8.49831 4.10391 8.39227 4.51765 8.19C4.9314 7.98774 5.29974 7.69392 5.59803 7.32819C5.89822 7.68993 6.2674 7.97964 6.68105 8.17808C7.0947 8.37653 7.54335 8.47916 7.99719 8.47916C8.45103 8.47916 8.89968 8.37653 9.31333 8.17808C9.72698 7.97964 10.0962 7.68993 10.3963 7.32819C10.6946 7.69392 11.063 7.98774 11.4767 8.19C11.8905 8.39227 12.3401 8.49831 12.7955 8.50104V15.3002ZM12.7955 6.80125C12.3713 6.80125 11.9645 6.62217 11.6645 6.30339C11.3646 5.98462 11.1961 5.55227 11.1961 5.10146C11.1961 4.87605 11.1118 4.65988 10.9618 4.50049C10.8119 4.34111 10.6084 4.25156 10.3963 4.25156C10.1842 4.25156 9.98084 4.34111 9.83086 4.50049C9.68089 4.65988 9.59663 4.87605 9.59663 5.10146C9.59663 5.55227 9.42812 5.98462 9.12816 6.30339C8.82821 6.62217 8.42139 6.80125 7.99719 6.80125C7.57299 6.80125 7.16617 6.62217 6.86622 6.30339C6.56626 5.98462 6.39775 5.55227 6.39775 5.10146C6.39775 4.87605 6.3135 4.65988 6.16352 4.50049C6.01354 4.34111 5.81013 4.25156 5.59803 4.25156C5.38593 4.25156 5.18252 4.34111 5.03255 4.50049C4.88257 4.65988 4.79831 4.87605 4.79831 5.10146C4.80619 5.32468 4.77262 5.54736 4.69952 5.75679C4.62642 5.96623 4.51521 6.1583 4.37226 6.32206C4.22931 6.48582 4.05741 6.61806 3.86637 6.71121C3.67533 6.80437 3.4689 6.85662 3.25886 6.86499C2.83466 6.8819 2.42152 6.71903 2.11031 6.41221C1.95622 6.26029 1.8318 6.0776 1.74414 5.87457C1.65648 5.67155 1.60731 5.45216 1.59944 5.22894L2.94297 1.70188H13.0514L14.3949 5.22894C14.3646 5.65731 14.1828 6.05758 13.8861 6.34928C13.5894 6.64098 13.1997 6.80246 12.7955 6.80125Z" fill="currentColor"/>
    </svg>

    <svg id="bell" width="14" height="18" viewBox="0 0 14 18" fill="none" xmlns="http://www.w3.org/2000/svg">
        <path d="M12.3071 10.2014V7.37397C12.3058 6.11418 11.8795 4.89548 11.1037 3.93371C10.3278 2.97194 9.25239 2.32915 8.06793 2.11919V1.15003C8.06793 0.914216 7.97861 0.688061 7.81961 0.521316C7.66061 0.354571 7.44496 0.260895 7.2201 0.260895C6.99525 0.260895 6.7796 0.354571 6.6206 0.521316C6.4616 0.688061 6.37228 0.914216 6.37228 1.15003V2.11919C5.18782 2.32915 4.11242 2.97194 3.33654 3.93371C2.56066 4.89548 2.13437 6.11418 2.13315 7.37397V10.2014C1.6384 10.3849 1.20987 10.7243 0.906295 11.1732C0.602723 11.6221 0.438975 12.1585 0.4375 12.7088V14.487C0.4375 14.7229 0.526824 14.949 0.685823 15.1158C0.844821 15.2825 1.06047 15.3762 1.28533 15.3762H3.9475C4.14274 16.1296 4.56896 16.7947 5.16039 17.2689C5.75183 17.7431 6.47563 18 7.2201 18C7.96458 18 8.68838 17.7431 9.27981 17.2689C9.87125 16.7947 10.2975 16.1296 10.4927 15.3762H13.1549C13.3797 15.3762 13.5954 15.2825 13.7544 15.1158C13.9134 14.949 14.0027 14.7229 14.0027 14.487V12.7088C14.0012 12.1585 13.8375 11.6221 13.5339 11.1732C13.2303 10.7243 12.8018 10.3849 12.3071 10.2014ZM3.8288 7.37397C3.8288 6.43072 4.1861 5.5261 4.82209 4.85912C5.45808 4.19214 6.32067 3.81743 7.2201 3.81743C8.11953 3.81743 8.98212 4.19214 9.61812 4.85912C10.2541 5.5261 10.6114 6.43072 10.6114 7.37397V10.0414H3.8288V7.37397ZM7.2201 16.2653C6.92419 16.2634 6.63389 16.1804 6.37807 16.0244C6.12225 15.8684 5.9098 15.6449 5.76184 15.3762H8.67836C8.53041 15.6449 8.31796 15.8684 8.06214 16.0244C7.80631 16.1804 7.51602 16.2634 7.2201 16.2653ZM12.3071 13.5979H2.13315V12.7088C2.13315 12.473 2.22248 12.2468 2.38147 12.0801C2.54047 11.9133 2.75612 11.8196 2.98098 11.8196H11.4592C11.6841 11.8196 11.8997 11.9133 12.0587 12.0801C12.2177 12.2468 12.3071 12.473 12.3071 12.7088V13.5979Z" fill="currentColor"/>
    </svg>

    <svg id="user" width="17" height="18" viewBox="0 0 17 18" fill="none" xmlns="http://www.w3.org/2000/svg">
        <path d="M11.9531 9.23294C12.5201 8.74391 12.9748 8.13906 13.2864 7.45944C13.5981 6.77982 13.7594 6.04134 13.7594 5.29412C13.7594 3.89003 13.1997 2.54345 12.2034 1.55061C11.2071 0.557772 9.85584 0 8.44688 0C7.03791 0 5.68666 0.557772 4.69037 1.55061C3.69408 2.54345 3.13438 3.89003 3.13438 5.29412C3.14093 6.04544 3.3105 6.78646 3.63145 7.46634C3.9524 8.14622 4.41712 8.74887 4.99375 9.23294C3.5064 9.90411 2.24449 10.988 1.35892 12.3549C0.473338 13.7219 0.00156385 15.3141 0 16.9412C0 17.222 0.111942 17.4913 0.311199 17.6899C0.510456 17.8884 0.780708 18 1.0625 18C1.34429 18 1.61454 17.8884 1.8138 17.6899C2.01306 17.4913 2.125 17.222 2.125 16.9412C2.125 15.2563 2.79665 13.6404 3.99219 12.449C5.18774 11.2576 6.80925 10.5882 8.5 10.5882C10.1908 10.5882 11.8123 11.2576 13.0078 12.449C14.2034 13.6404 14.875 15.2563 14.875 16.9412C14.875 17.222 14.9869 17.4913 15.1862 17.6899C15.3855 17.8884 15.6557 18 15.9375 18C16.2193 18 16.4895 17.8884 16.6888 17.6899C16.8881 17.4913 17 17.222 17 16.9412C16.9938 15.3083 16.5142 13.7119 15.6188 12.3444C14.7234 10.9768 13.4504 9.8963 11.9531 9.23294ZM8.44688 8.47059C7.81645 8.47059 7.20018 8.28429 6.676 7.93526C6.15181 7.58622 5.74326 7.09012 5.50201 6.5097C5.26075 5.92928 5.19763 5.29059 5.32062 4.67442C5.44361 4.05824 5.74719 3.49225 6.19297 3.04801C6.63875 2.60378 7.20671 2.30125 7.82503 2.17868C8.44334 2.05612 9.08424 2.11902 9.66668 2.35944C10.2491 2.59986 10.7469 3.007 11.0972 3.52937C11.4474 4.05173 11.6344 4.66587 11.6344 5.29412C11.6344 6.13657 11.2986 6.94452 10.7008 7.54022C10.103 8.13593 9.29225 8.47059 8.44688 8.47059Z" fill="currentColor"/>
    </svg>

    <svg id="language" xmlns="http://www.w3.org/2000/svg" fill="none" viewBox="0 0 24 24" stroke-width="1.5" stroke="currentColor">
        <path stroke-linecap="round" stroke-linejoin="round" d="m10.5 21 5.25-11.25L21 21m-9-3h7.5M3 5.621a48.474 48.474 0 0 1 6-.371m0 0c1.12 0 2.233.038 3.334.114M9 5.25V3m3.334 2.364C11.176 10.658 7.69 15.08 3 17.502m9.334-12.138c.896.061 1.785.147 2.666.257m-4.589 8.495a18.023 18.023 0 0 1-3.827-5.802" />
    </svg>

    <svg id="menu" xmlns="http://www.w3.org/2000/svg" fill="none" viewBox="0 0 24 24" stroke-width="1.5" stroke="currentColor">
        <path stroke-linecap="round" stroke-linejoin="round" d="M3.75 6.75h16.5M3.75 12h16.5m-16.5 5.25h16.5" />
    </svg>

    <svg id="plus-circle" width="19" height="19" viewBox="0 0 19 19" fill="none" xmlns="http://www.w3.org/2000/svg">
        <path d="M9.5 18C14.1944 18 18 14.1944 18 9.5C18 4.80558 14.1944 1 9.5 1C4.80558 1 1 4.80558 1 9.5C1 14.1944 4.80558 18 9.5 18Z" stroke="currentColor" stroke-width="2" stroke-linecap="round" stroke-linejoin="round"/>
        <path d="M9.5 6.10004V12.9" stroke="currentColor" stroke-width="2" stroke-linecap="round" stroke-linejoin="round"/>
        <path d="M6.09998 9.5H12.9" stroke="currentColor" stroke-width="2" stroke-linecap="round" stroke-linejoin="round"/>
    </svg>

    <svg id="academy-cap" width="23" height="19" viewBox="0 0 23 19" fill="none" xmlns="http://www.w3.org/2000/svg">
        <path d="M11.5 0L0 6.33333L4.18182 8.63445V14.9678L11.5 19L18.8182 14.9678V8.63445L20.9091 7.48389V14.7778H23V6.33333L11.5 0ZM18.63 6.33333L11.5 10.26L4.37 6.33333L11.5 2.40667L18.63 6.33333ZM16.7273 13.7222L11.5 16.5933L6.27273 13.7222V9.785L11.5 12.6667L16.7273 9.785V13.7222Z" fill="currentColor"/>
    </svg>

    <svg id="code-icon" width="12" height="12" viewBox="0 0 12 12" fill="none" xmlns="http://www.w3.org/2000/svg">
        <rect x="0.5" y="0.5" width="9" height="8" rx="1.5" stroke="currentColor"/>
        <rect x="2.5" y="2.5" width="9" height="9" rx="1.5" fill="#0D1646" stroke="currentColor"/>
    </svg>

    <svg id="edit" xmlns="http://www.w3.org/2000/svg" fill="none" viewBox="0 0 24 24" stroke-width="1.5" stroke="currentColor">
        <path stroke-linecap="round" stroke-linejoin="round" d="m16.862 4.487 1.687-1.688a1.875 1.875 0 1 1 2.652 2.652L10.582 16.07a4.5 4.5 0 0 1-1.897 1.13L6 18l.8-2.685a4.5 4.5 0 0 1 1.13-1.897l8.932-8.931Zm0 0L19.5 7.125M18 14v4.75A2.25 2.25 0 0 1 15.75 21H5.25A2.25 2.25 0 0 1 3 18.75V8.25A2.25 2.25 0 0 1 5.25 6H10" />
    </svg>

    <svg id="tooltip" width="11" height="11" viewBox="0 0 11 11" fill="none" xmlns="http://www.w3.org/2000/svg">
        <path d="M5.5 10C7.98528 10 10 7.98528 10 5.5C10 3.01472 7.98528 1 5.5 1C3.01472 1 1 3.01472 1 5.5C1 7.98528 3.01472 10 5.5 10Z" stroke="currentColor" stroke-width="0.5" stroke-linecap="round" stroke-linejoin="round"/>
        <path d="M5.5 2.5L5.5 6.25" stroke="currentColor" stroke-width="0.5" stroke-linecap="round" stroke-linejoin="round"/>
        <path d="M6 7.5C6 7.77614 5.77614 8 5.5 8C5.22386 8 5 7.77614 5 7.5C5 7.22386 5.22386 7 5.5 7C5.77614 7 6 7.22386 6 7.5Z" fill="currentColor"/>
    </svg>

    <svg id="more-info" width="16" height="16" viewBox="0 0 16 16" fill="none" xmlns="http://www.w3.org/2000/svg">
        <g clip-path="url(#clip0_1_1178)">
        <path d="M2 0C1.46957 0 0.960859 0.210714 0.585786 0.585786C0.210714 0.960859 0 1.46957 0 2L0 14C0 14.5304 0.210714 15.0391 0.585786 15.4142C0.960859 15.7893 1.46957 16 2 16H14C14.5304 16 15.0391 15.7893 15.4142 15.4142C15.7893 15.0391 16 14.5304 16 14V2C16 1.46957 15.7893 0.960859 15.4142 0.585786C15.0391 0.210714 14.5304 0 14 0L2 0ZM5.496 6.033C5.46377 6.03344 5.43178 6.02729 5.402 6.01494C5.37222 6.00259 5.34528 5.9843 5.32281 5.96118C5.30035 5.93806 5.28284 5.9106 5.27135 5.88048C5.25986 5.85036 5.25464 5.81821 5.256 5.786C5.35 4.091 6.737 3.5 8.005 3.5C9.401 3.5 10.677 4.23 10.677 5.74C10.677 6.82 10.042 7.334 9.433 7.797C8.696 8.356 8.423 8.565 8.423 9.283V9.388C8.423 9.4543 8.39666 9.51789 8.34978 9.56478C8.30289 9.61166 8.2393 9.638 8.173 9.638H7.363C7.29738 9.63801 7.23439 9.61222 7.18762 9.5662C7.14085 9.52017 7.11405 9.45761 7.113 9.392L7.109 9.175C7.071 8.248 7.604 7.677 8.277 7.188C8.867 6.744 9.242 6.452 9.242 5.817C9.242 4.992 8.614 4.649 7.928 4.649C7.125 4.649 6.675 5.127 6.586 5.783C6.568 5.92 6.458 6.033 6.32 6.033H5.495H5.496ZM7.821 12.476C7.237 12.476 6.812 12.082 6.812 11.549C6.812 10.997 7.237 10.609 7.822 10.609C8.431 10.609 8.85 10.997 8.85 11.549C8.85 12.082 8.43 12.476 7.821 12.476Z" fill="currentColor"/>
        </g>
        <defs>
        <clipPath id="clip0_1_1178">
        <rect width="16" height="16" fill="white"/>
        </clipPath>
        </defs>
    </svg>

    <svg id="exclamation-square" width="25" height="24" viewBox="0 0 25 24" fill="none" xmlns="http://www.w3.org/2000/svg">
        <path d="M3.88136 0C3.09245 0 2.33586 0.316071 1.77802 0.87868C1.22018 1.44129 0.906784 2.20435 0.906784 3L0.906784 21C0.906784 21.7956 1.22018 22.5587 1.77802 23.1213C2.33586 23.6839 3.09245 24 3.88136 24H21.7288C22.5177 24 23.2743 23.6839 23.8322 23.1213C24.39 22.5587 24.7034 21.7956 24.7034 21V3C24.7034 2.20435 24.39 1.44129 23.8322 0.87868C23.2743 0.316071 22.5177 0 21.7288 0L3.88136 0ZM12.8051 6C13.6008 6 14.224 6.693 14.1436 7.4925L13.6231 12.753C13.6056 12.9597 13.5119 13.1522 13.3604 13.2925C13.2089 13.4327 13.0107 13.5106 12.8051 13.5106C12.5994 13.5106 12.4013 13.4327 12.2498 13.2925C12.0983 13.1522 12.0046 12.9597 11.9871 12.753L11.4665 7.4925C11.4478 7.30385 11.4685 7.11334 11.5273 6.93325C11.586 6.75316 11.6815 6.58747 11.8076 6.44687C11.9337 6.30626 12.0876 6.19386 12.2594 6.11689C12.4312 6.03993 12.6171 6.00011 12.8051 6ZM12.8081 15C13.2025 15 13.5808 15.158 13.8597 15.4393C14.1387 15.7206 14.2954 16.1022 14.2954 16.5C14.2954 16.8978 14.1387 17.2794 13.8597 17.5607C13.5808 17.842 13.2025 18 12.8081 18C12.4136 18 12.0353 17.842 11.7564 17.5607C11.4775 17.2794 11.3208 16.8978 11.3208 16.5C11.3208 16.1022 11.4775 15.7206 11.7564 15.4393C12.0353 15.158 12.4136 15 12.8081 15Z" fill="currentColor"/>
    </svg>

    <svg id="search" width="16" height="16" viewBox="0 0 16 16" fill="none" xmlns="http://www.w3.org/2000/svg">
        <path d="M6.22094 12.4448C7.61839 12.4448 8.90916 11.9825 9.94746 11.2056L14.4812 15.7391C14.5637 15.8217 14.6617 15.8873 14.7696 15.9321C14.8775 15.9768 14.9931 15.9999 15.1099 16C15.2267 16.0001 15.3424 15.9772 15.4503 15.9325C15.5583 15.8879 15.6564 15.8225 15.739 15.7399C15.8217 15.6574 15.8873 15.5594 15.9321 15.4515C15.9768 15.3437 15.9999 15.228 16 15.1112C16.0001 14.9944 15.9772 14.8788 15.9325 14.7708C15.8879 14.6629 15.8225 14.5648 15.7399 14.4821L11.2062 9.94869C12.0454 8.82649 12.4813 7.4539 12.4431 6.05316C12.405 4.65243 11.8952 3.30556 10.9962 2.23064C10.0973 1.15572 8.86177 0.415689 7.4898 0.130366C6.11782 -0.154957 4.6897 0.0311346 3.43667 0.658509C2.18363 1.28588 1.17906 2.31781 0.58559 3.5872C-0.00787536 4.85659 -0.155481 6.28912 0.166672 7.65285C0.488826 9.01657 1.26188 10.2316 2.36066 11.1013C3.45943 11.971 4.81961 12.4444 6.22094 12.4448ZM6.22094 10.6669C5.04211 10.6669 3.91155 10.1987 3.07799 9.36515C2.24443 8.53164 1.77614 7.40115 1.77614 6.22238C1.77614 5.04361 2.24443 3.91312 3.07799 3.07961C3.91155 2.24609 5.04211 1.77783 6.22094 1.77783C7.39978 1.77783 8.53033 2.24609 9.36389 3.07961C10.1975 3.91312 10.6657 5.04361 10.6657 6.22238C10.6657 7.40115 10.1975 8.53164 9.36389 9.36515C8.53033 10.1987 7.39978 10.6669 6.22094 10.6669Z" fill="currentColor"/>
    </svg>


    <svg id="download" width="20" height="20" viewBox="0 0 20 20" fill="none" xmlns="http://www.w3.org/2000/svg">
        <path d="M17.5 18.5H18.5V17.5V14.75H19V17.5C19 18.3227 18.3227 19 17.5 19H2.5C1.67728 19 1 18.3227 1 17.5V14.75H1.5V17.5V18.5H2.5H17.5ZM9.75 10.2125V1H10.25V10.2125V12.6201L11.9557 10.921L14.4861 8.40035L14.8358 8.75L10 13.5858L5.16421 8.75L5.51387 8.40035L8.04426 10.921L9.75 12.6201V10.2125Z" fill="currentColor" stroke="currentColor" stroke-width="2"/>
    </svg>

    <svg id="plus" width="11" height="11" viewBox="0 0 11 11" fill="none" xmlns="http://www.w3.org/2000/svg">
        <path d="M11 6.53529H6.64314V11H4.35686V6.53529H0V4.46471H4.35686V0H6.64314V4.46471H11V6.53529Z" fill="currentColor"/>
    </svg>

    <svg id="question" width="15" height="14" viewBox="0 0 15 14" fill="none" xmlns="http://www.w3.org/2000/svg">
        <path d="M1.875 0C1.37772 0 0.900806 0.184374 0.549175 0.512563C0.197544 0.840752 0 1.28587 0 1.75L0 12.25C0 12.7141 0.197544 13.1592 0.549175 13.4874C0.900806 13.8156 1.37772 14 1.875 14H13.125C13.6223 14 14.0992 13.8156 14.4508 13.4874C14.8025 13.1592 15 12.7141 15 12.25V1.75C15 1.28587 14.8025 0.840752 14.4508 0.512563C14.0992 0.184374 13.6223 0 13.125 0L1.875 0ZM5.1525 5.27887C5.12228 5.27926 5.09229 5.27388 5.06438 5.26308C5.03646 5.25227 5.0112 5.23626 4.99014 5.21603C4.96908 5.1958 4.95266 5.17177 4.94189 5.14542C4.93112 5.11906 4.92622 5.09093 4.9275 5.06275C5.01562 3.57962 6.31594 3.0625 7.50469 3.0625C8.81344 3.0625 10.0097 3.70125 10.0097 5.0225C10.0097 5.9675 9.41437 6.41725 8.84344 6.82237C8.1525 7.3115 7.89656 7.49438 7.89656 8.12263V8.2145C7.89656 8.27252 7.87187 8.32816 7.82792 8.36918C7.78396 8.4102 7.72435 8.43325 7.66219 8.43325H6.90281C6.8413 8.43326 6.78224 8.41069 6.7384 8.37042C6.69455 8.33015 6.66942 8.27541 6.66844 8.218L6.66469 8.02812C6.62906 7.217 7.12875 6.71738 7.75969 6.2895C8.31281 5.901 8.66437 5.6455 8.66437 5.08987C8.66437 4.368 8.07563 4.06787 7.4325 4.06787C6.67969 4.06787 6.25781 4.48612 6.17438 5.06012C6.1575 5.18 6.05438 5.27887 5.925 5.27887H5.15156H5.1525ZM7.33219 10.9165C6.78469 10.9165 6.38625 10.5717 6.38625 10.1054C6.38625 9.62237 6.78469 9.28288 7.33313 9.28288C7.90406 9.28288 8.29688 9.62237 8.29688 10.1054C8.29688 10.5717 7.90313 10.9165 7.33219 10.9165Z" fill="currentColor"/>
    </svg>

    <svg id="x-mark" xmlns="http://www.w3.org/2000/svg" fill="none" viewBox="0 0 24 24" stroke-width="1.5" stroke="currentColor">
        <path stroke-linecap="round" stroke-linejoin="round" d="M6 18 18 6M6 6l12 12" />
    </svg>

    <svg id="chevron-up" width="11" height="7" viewBox="0 0 11 7" fill="none" xmlns="http://www.w3.org/2000/svg">
        <path d="M0.909618 6.33265C1.08917 6.51114 1.33207 6.61133 1.58524 6.61133C1.83842 6.61133 2.08131 6.51114 2.26087 6.33265L5.70129 2.94015L9.09379 6.33265C9.27335 6.51114 9.51624 6.61133 9.76942 6.61133C10.0226 6.61133 10.2655 6.51114 10.445 6.33265C10.5349 6.24356 10.6062 6.13757 10.6548 6.02079C10.7035 5.90401 10.7285 5.77875 10.7285 5.65223C10.7285 5.52572 10.7035 5.40046 10.6548 5.28368C10.6062 5.1669 10.5349 5.06091 10.445 4.97182L6.38171 0.908481C6.29262 0.818657 6.18662 0.747363 6.06984 0.69871C5.95306 0.650056 5.8278 0.625007 5.70129 0.625007C5.57478 0.625007 5.44952 0.650056 5.33274 0.69871C5.21595 0.747363 5.10996 0.818657 5.02087 0.908481L0.909618 4.97182C0.819795 5.06091 0.748501 5.1669 0.699847 5.28368C0.651194 5.40046 0.626143 5.52572 0.626143 5.65223C0.626143 5.77875 0.651194 5.90401 0.699847 6.02079C0.748501 6.13757 0.819795 6.24356 0.909618 6.33265Z" fill="currentColor"/>
    </svg>

    <svg id="chevron-down" width="11" height="7" viewBox="0 0 11 7" fill="none" xmlns="http://www.w3.org/2000/svg">
        <path d="M10.4444 0.903676C10.2648 0.725186 10.0219 0.625 9.76876 0.625C9.51558 0.625 9.27269 0.725186 9.09313 0.903676L5.65272 4.29618L2.26021 0.903676C2.08066 0.725186 1.83777 0.625 1.58459 0.625C1.33141 0.625 1.08852 0.725186 0.908962 0.903676C0.819139 0.992766 0.747844 1.09876 0.699191 1.21554C0.650537 1.33232 0.625488 1.45758 0.625488 1.58409C0.625488 1.71061 0.650537 1.83586 0.699191 1.95265C0.747844 2.06943 0.819139 2.17542 0.908962 2.26451L4.9723 6.32785C5.06139 6.41767 5.16738 6.48897 5.28416 6.53762C5.40094 6.58627 5.5262 6.61132 5.65272 6.61132C5.77923 6.61132 5.90449 6.58627 6.02127 6.53762C6.13805 6.48897 6.24404 6.41767 6.33313 6.32785L10.4444 2.26451C10.5342 2.17542 10.6055 2.06943 10.6542 1.95265C10.7028 1.83586 10.7279 1.71061 10.7279 1.58409C10.7279 1.45758 10.7028 1.33232 10.6542 1.21554C10.6055 1.09876 10.5342 0.992766 10.4444 0.903676Z" fill="currentColor"/>
    </svg>



    </defs>
</svg>